<?xml version="1.0" encoding="UTF-8"?>
<svg id="Layer_1" xmlns="http://www.w3.org/2000/svg" version="1.1" viewBox="0 0 1920 1080">
  <!-- Generator: Adobe Illustrator 29.5.1, SVG Export Plug-In . SVG Version: 2.1.0 Build 141)  -->
  <defs>
    <style>
      .st0 {
        fill: #1d1d1b;
      }

      .st1 {
        fill: #007cab;
      }
    </style>
  </defs>
  <g id="logo">
    <path class="st1" d="M201.8,486.7h20.3v124.7h77.1v17.7h-97.4v-142.4h0Z"/>
    <path class="st1" d="M434.4,629l-51.7-116.9-51.2,116.9h-22l62.6-142.4h20.1l62.4,142.4h-20.3,0Z"/>
    <path class="st1" d="M580.5,567.7c4.7,6,7.1,13.7,7.1,22.9s-4.7,21.8-13.9,28.5c-9.3,6.7-22.8,10-40.6,10h-67.9v-142.4h63.9c16.3,0,28.8,3.2,37.7,9.8,8.9,6.5,13.3,15.5,13.3,27s-1.7,13.9-5.2,19.3-8.1,9.6-13.9,12.4c8.3,2.3,14.8,6.5,19.5,12.5h0ZM485.5,503.1v45.6h41.7c10.4,0,18.5-1.9,24.1-5.8s8.4-9.5,8.4-17-2.8-13.1-8.4-17c-5.6-3.9-13.7-5.8-24.1-5.8h-41.7,0ZM558.3,606.9c5.8-3.8,8.8-9.8,8.8-17.9,0-15.9-11.6-23.8-34.8-23.8h-46.8v47.4h46.8c11.5,0,20.2-1.9,26-5.7h0Z"/>
    <path class="st0" d="M744.5,486.7v142.4h-8.5l-97-123.7v123.7h-10.4v-142.4h8.7l96.8,123.7v-123.7h10.4Z"/>
    <path class="st0" d="M1050.3,486.7l-63.5,142.4h-10.4l-63.5-142.4h11.4l57.5,128.9,57.6-128.9h10.8Z"/>
    <path class="st0" d="M1155.2,629l-57.6-128.9-57.6,128.9h-11.4l63.5-142.4h10.4l63.4,142.4h-10.8,0Z"/>
    <path class="st0" d="M1196.4,496h-51.2v-9.4h112.9v9.4h-51.3v133h-10.4v-133h0Z"/>
    <path class="st0" d="M1278.6,486.7h10.4v142.4h-10.4v-142.4Z"/>
    <path class="st0" d="M1345.7,620.6c-11.3-6.3-20.1-15-26.6-25.9-6.4-11-9.7-23.2-9.7-36.8s3.2-25.8,9.7-36.8c6.4-11,15.3-19.6,26.6-25.9s23.9-9.5,37.8-9.5,26.6,3.1,37.8,9.4c11.3,6.2,20.1,14.9,26.6,25.8,6.4,11,9.7,23.3,9.7,37s-3.2,26-9.7,37c-6.5,11-15.3,19.6-26.6,25.8-11.3,6.2-23.9,9.4-37.8,9.4s-26.6-3.2-37.8-9.5h0ZM1415.8,612.4c9.6-5.4,17.2-12.9,22.8-22.5s8.3-20.2,8.3-32-2.8-22.5-8.3-32c-5.6-9.6-13.1-17-22.8-22.5-9.6-5.4-20.4-8.1-32.3-8.1s-22.7,2.7-32.4,8.1c-9.7,5.4-17.3,12.9-22.9,22.5-5.6,9.6-8.3,20.2-8.3,32s2.8,22.5,8.3,32c5.6,9.6,13.2,17.1,22.9,22.5,9.7,5.4,20.5,8.1,32.4,8.1s22.7-2.7,32.3-8.1h0Z"/>
    <path class="st0" d="M1594.6,486.7v142.4h-8.6l-97-123.7v123.7h-10.4v-142.4h8.8l96.8,123.7v-123.7h10.4Z"/>
    <path class="st0" d="M1637.2,624.7c-9.4-3.6-16.8-8.2-22.1-13.9l4.7-7.7c5,5.3,11.8,9.6,20.2,12.9,8.5,3.3,17.4,5,26.8,5,13.6,0,23.8-2.6,30.7-7.7,6.9-5.2,10.4-11.9,10.4-20.1s-1.8-11.5-5.5-15.2-8.2-6.7-13.6-8.8c-5.4-2-12.7-4.1-22-6.3-10.4-2.6-18.8-5.1-25.1-7.5s-11.7-6.2-16.1-11.3c-4.4-5.1-6.6-11.9-6.6-20.4s1.8-13.2,5.5-19c3.7-5.8,9.2-10.3,16.8-13.7,7.5-3.4,16.9-5.1,28.2-5.1s15.6,1.1,23.2,3.5c7.6,2.3,14.2,5.4,19.7,9.4l-3.9,8.3c-5.7-3.9-12-6.9-18.8-9s-13.6-3-20.2-3c-13.1,0-23.1,2.6-29.9,7.9-6.8,5.3-10.2,12.1-10.2,20.5s1.8,11.5,5.5,15.3c3.7,3.8,8.2,6.7,13.6,8.7,5.4,2,12.8,4.2,22.2,6.5,10.4,2.6,18.8,5.1,25,7.5,6.2,2.4,11.6,6.1,16,11.1s6.6,11.6,6.6,20-1.8,13.2-5.6,18.9c-3.7,5.7-9.5,10.2-17.2,13.6-7.7,3.4-17.2,5.1-28.5,5.1s-20.4-1.8-29.8-5.4h0Z"/>
    <path class="st0" d="M903.3,521.2c-6.4-11-15.2-19.5-26.5-25.8-6.6-3.6-13.6-6.2-21.1-7.7v9.9c5.5,1.4,10.7,3.4,15.6,6.2,9.6,5.4,17.2,12.9,22.7,22.4,5.5,9.5,8.3,20.2,8.3,31.9s-2.8,22.4-8.3,32-13.1,17-22.7,22.4c-9.6,5.4-20.3,8.1-32.2,8.1s-22.7-2.7-32.3-8.1c-9.7-5.4-17.3-12.9-22.8-22.4-5.5-9.5-8.3-20.2-8.3-32s2.8-22.4,8.3-31.9,13.2-17,22.8-22.4c3.8-2.1,7.7-3.8,11.8-5.1v-10c-6,1.6-11.8,3.9-17.2,6.9-11.2,6.3-20.1,14.9-26.5,25.9s-9.6,23.2-9.6,36.7,3.2,25.8,9.6,36.7c6.4,11,15.2,19.6,26.5,25.9,11.2,6.3,23.8,9.4,37.7,9.4s26.5-3.1,37.7-9.3c11.2-6.2,20-14.8,26.5-25.8,6.4-11,9.6-23.3,9.6-36.9s-3.2-26-9.6-36.9h0Z"/>
    <path class="st1" d="M847.3,476.4c-1.9-1.9-2.9-4.1-2.9-6.9s1-5.1,2.9-7c1.9-1.9,4.3-2.9,7-2.9s5.1.9,7,2.8c1.9,1.9,2.9,4.1,2.9,6.9s-1,5.1-2.9,7c-1.9,1.9-4.3,2.9-7,2.9s-5.1-.9-7-2.8h0Z"/>
    <path class="st1" d="M829.7,497.4c-1.9-1.9-2.9-4.1-2.9-6.9s1-5.1,2.9-7c1.9-1.9,4.3-2.9,7-2.9s5.1.9,7,2.8c1.9,1.9,2.9,4.1,2.9,6.9s-1,5.1-2.9,7c-1.9,1.9-4.3,2.9-7,2.9s-5.1-.9-7-2.8h0Z"/>
    <path class="st1" d="M832.3,460.3c-1.2-1.1-1.8-2.6-1.8-4.3s.6-3.1,1.8-4.3c1.2-1.2,2.6-1.8,4.3-1.8s3.1.6,4.3,1.7c1.2,1.1,1.8,2.6,1.8,4.3s-.6,3.1-1.8,4.3c-1.2,1.2-2.6,1.8-4.3,1.8s-3.1-.6-4.3-1.7Z"/>
    <path class="st1" d="M859.5,560.3c-5.7,0-11.1.9-16.2,2.7-1.5.5-3,1.1-4.5,1.8-1.5.7-2.9,1.4-4.2,2.2-.5.3-.9.5-1.4.8h0c-7.4,4.2-15.9,6.6-25,6.6s-12.9-1.3-18.7-3.6c3,12.3,10.5,22.9,20.6,29.8,8.1,5.5,17.8,8.7,28.3,8.7,24.4,0,44.7-17.5,49.4-40.5-8.1-5.5-17.9-8.5-28.4-8.5h0Z"/>
  </g>
</svg>