<?xml version="1.0" encoding="UTF-8"?><svg id="Layer_3" xmlns="http://www.w3.org/2000/svg" viewBox="0 0 1920 1080"><defs><style>.cls-1{fill:#1d1d1b;}.cls-2{fill:#1080b3;}.cls-3{fill:#007cab;}.cls-4{letter-spacing:-.03em;}.cls-5{fill:#121718;font-family:Montserrat-Thin, Montserrat;font-size:98.6px;font-variation-settings:'wght' 100;font-weight:200;}</style></defs><text class="cls-5" transform="translate(813.7 711.6)"><tspan class="cls-4" x="0" y="0">F</tspan><tspan x="58.57" y="0">ARMA</tspan></text><rect class="cls-2" x="1282.75" y="671.1" width="587.63" height="8.23"/><rect class="cls-2" x="88.76" y="671.1" width="587.62" height="8.23"/><path class="cls-3" d="M88.33,436.31h23.91v146.51h90.58v20.79h-114.49v-167.31Z"/><path class="cls-3" d="M361.73,603.62l-60.71-137.43-60.22,137.43h-25.83l73.62-167.31h23.67l73.37,167.31h-23.91Z"/><path class="cls-3" d="M533.33,531.55c5.56,7.1,8.36,16.06,8.36,26.89,0,14.5-5.47,25.66-16.38,33.47-10.91,7.81-26.8,11.71-47.67,11.71h-79.85v-167.31h75.06c19.12,0,33.9,3.82,44.33,11.47,10.45,7.65,15.66,18.25,15.66,31.79,0,8.76-2.02,16.34-6.09,22.71-4.07,6.37-9.53,11.23-16.38,14.58,9.73,2.71,17.37,7.61,22.95,14.7ZM421.7,455.66v53.54h49c12.27,0,21.71-2.27,28.32-6.81,6.61-4.54,9.92-11.19,9.92-19.96s-3.31-15.41-9.92-19.96c-6.61-4.54-16.05-6.82-28.32-6.82h-49ZM507.26,577.56c6.87-4.45,10.29-11.47,10.29-21.03,0-18.64-13.64-27.97-40.87-27.97h-54.99v55.69h54.99c13.54,0,23.73-2.23,30.58-6.69Z"/><path class="cls-1" d="M726.07,436.31v167.31h-10.04l-114-145.32v145.32h-12.2v-167.31h10.27l113.77,145.32v-145.32h12.2Z"/><path class="cls-1" d="M1085.42,436.31l-74.57,167.31h-12.2l-74.57-167.31h13.4l67.63,151.53,67.65-151.53h12.66Z"/><path class="cls-1" d="M1208.76,603.62l-67.63-151.53-67.65,151.53h-13.38l74.57-167.31h12.2l74.55,167.31h-12.66Z"/><path class="cls-1" d="M1257.2,447.3h-60.22v-10.99h132.65v10.99h-60.24v156.32h-12.2v-156.32Z"/><path class="cls-1" d="M1353.74,436.31h12.2v167.31h-12.2v-167.31Z"/><path class="cls-1" d="M1432.59,593.7c-13.23-7.41-23.63-17.56-31.2-30.47-7.57-12.91-11.34-27.33-11.34-43.27s3.77-30.35,11.34-43.26c7.57-12.91,17.97-23.06,31.2-30.47,13.23-7.41,28.05-11.12,44.45-11.12s31.24,3.67,44.46,10.99c13.23,7.33,23.61,17.45,31.2,30.36,7.57,12.91,11.34,27.41,11.34,43.49s-3.77,30.6-11.34,43.5c-7.59,12.91-17.97,23.03-31.2,30.35-13.23,7.33-28.05,11-44.46,11s-31.22-3.71-44.45-11.12ZM1515.04,584.02c11.32-6.37,20.23-15.18,26.76-26.41,6.54-11.23,9.8-23.78,9.8-37.65s-3.27-26.4-9.8-37.64c-6.54-11.23-15.44-20.03-26.76-26.41-11.32-6.37-23.98-9.56-38.01-9.56s-26.73,3.19-38.12,9.56c-11.38,6.38-20.35,15.18-26.88,26.41-6.54,11.23-9.8,23.78-9.8,37.64s3.27,26.41,9.8,37.65,15.5,20.04,26.88,26.41c11.4,6.37,24.1,9.56,38.12,9.56s26.69-3.19,38.01-9.56Z"/><path class="cls-1" d="M1725.09,436.31v167.31h-10.06l-114-145.32v145.32h-12.2v-167.31h10.29l113.77,145.32v-145.32h12.2Z"/><path class="cls-1" d="M1775.14,598.48c-11.09-4.22-19.72-9.69-25.95-16.38l5.5-9.08c5.89,6.21,13.83,11.28,23.79,15.18,9.96,3.91,20.42,5.85,31.43,5.85,15.93,0,27.95-3.02,36.08-9.08,8.13-6.05,12.2-13.94,12.2-23.66,0-7.49-2.16-13.46-6.46-17.92-4.3-4.46-9.65-7.89-16.01-10.28-6.38-2.39-14.98-4.86-25.81-7.41-12.27-3.02-22.12-5.97-29.53-8.84-7.41-2.87-13.71-7.29-18.89-13.27-5.17-5.97-7.76-13.99-7.76-24.02,0-8.13,2.16-15.57,6.46-22.35,4.3-6.77,10.87-12.15,19.7-16.13,8.85-3.98,19.88-5.97,33.11-5.97,9.24,0,18.32,1.35,27.25,4.07,8.93,2.7,16.65,6.37,23.19,10.99l-4.53,9.8c-6.69-4.62-14.06-8.13-22.12-10.52-8.05-2.38-15.97-3.58-23.79-3.58-15.44,0-27.15,3.1-35.13,9.32-7.97,6.21-11.94,14.27-11.94,24.14,0,7.5,2.14,13.47,6.44,17.93,4.32,4.46,9.65,7.89,16.03,10.27,6.36,2.39,15.05,4.94,26.04,7.65,12.27,3.02,22.08,5.97,29.39,8.84,7.33,2.87,13.6,7.22,18.77,13.03,5.17,5.82,7.76,13.66,7.76,23.54,0,8.13-2.18,15.54-6.55,22.23-4.4,6.69-11.13,12.03-20.21,16.01-9.08,3.99-20.23,5.98-33.46,5.98-12.27,0-23.94-2.11-35.01-6.33Z"/><path class="cls-1" d="M912.72,476.86c-7.57-12.88-17.92-22.97-31.11-30.28-7.72-4.27-16-7.26-24.81-9.04v11.57c6.47,1.59,12.6,3.99,18.37,7.24,11.29,6.36,20.17,15.14,26.69,26.34,6.52,11.2,9.78,23.71,9.78,37.53s-3.26,26.34-9.78,37.54c-6.52,11.2-15.4,19.99-26.69,26.34-11.29,6.35-23.92,9.53-37.9,9.53s-26.65-3.18-38.02-9.53c-11.35-6.35-20.29-15.14-26.81-26.34-6.52-11.2-9.78-23.71-9.78-37.54s3.26-26.33,9.78-37.53c6.52-11.2,15.46-19.98,26.81-26.34,4.43-2.48,9.07-4.46,13.9-5.97v-11.78c-7.1,1.85-13.84,4.53-20.2,8.09-13.19,7.39-23.57,17.52-31.11,30.39-7.55,12.87-11.31,27.25-11.31,43.14s3.76,30.28,11.31,43.15c7.55,12.87,17.92,23,31.11,30.39,13.19,7.39,27.97,11.09,44.32,11.09s31.15-3.66,44.34-10.97c13.19-7.3,23.55-17.4,31.11-30.27,7.55-12.87,11.31-27.33,11.31-43.38s-3.76-30.5-11.31-43.37Z"/><path class="cls-3" d="M846.86,424.18c-2.28-2.18-3.41-4.87-3.41-8.08s1.13-5.95,3.41-8.22c2.26-2.26,5.01-3.39,8.21-3.39s5.95,1.08,8.21,3.25c2.28,2.18,3.41,4.87,3.41,8.08s-1.13,5.95-3.41,8.21c-2.26,2.27-5.01,3.4-8.21,3.4s-5.95-1.08-8.21-3.25Z"/><path class="cls-3" d="M826.18,448.86c-2.28-2.18-3.41-4.87-3.41-8.08s1.13-5.95,3.41-8.22c2.26-2.26,5.01-3.39,8.21-3.39s5.95,1.08,8.21,3.25c2.28,2.18,3.41,4.87,3.41,8.08s-1.13,5.95-3.41,8.21c-2.26,2.27-5.01,3.4-8.21,3.4s-5.95-1.08-8.21-3.25Z"/><path class="cls-3" d="M829.3,405.29c-1.41-1.35-2.11-3.01-2.11-5s.7-3.68,2.11-5.09c1.4-1.4,3.1-2.1,5.08-2.1s3.68.67,5.08,2.01c1.41,1.35,2.11,3.01,2.11,5s-.7,3.68-2.11,5.08c-1.4,1.41-3.1,2.11-5.08,2.11s-3.68-.67-5.08-2.01Z"/><path class="cls-3" d="M861.29,522.78c-6.66,0-13.06,1.1-19.04,3.13-1.79.61-3.55,1.3-5.26,2.07-1.71.77-3.38,1.62-5,2.55-.54.31-1.07.62-1.6.95,0,0,0,0,0,0-8.65,4.95-18.67,7.78-29.36,7.78-7.76,0-15.17-1.49-21.95-4.21,3.47,14.49,12.28,26.9,24.23,35.05,9.48,6.47,20.95,10.25,33.29,10.25,28.62,0,52.53-20.63,58.01-47.63-9.48-6.47-20.99-9.95-33.33-9.95Z"/></svg>