<?xml version="1.0" encoding="UTF-8"?><svg id="logo" xmlns="http://www.w3.org/2000/svg" viewBox="0 0 1920 1080"><defs><style>.cls-1{fill:#1d1d1b;}.cls-2{fill:#007cab;}</style></defs><path class="cls-2" d="M201.79,486.68h20.34v124.67h77.08v17.69h-97.42v-142.37Z"/><path class="cls-2" d="M434.44,629.04l-51.66-116.94-51.24,116.94h-21.98l62.65-142.37h20.14l62.43,142.37h-20.34Z"/><path class="cls-2" d="M580.46,567.72c4.73,6.04,7.12,13.66,7.12,22.88,0,12.34-4.65,21.83-13.94,28.48-9.29,6.65-22.81,9.96-40.57,9.96h-67.94v-142.37h63.87c16.27,0,28.85,3.25,37.72,9.76,8.89,6.51,13.32,15.53,13.32,27.05,0,7.46-1.72,13.9-5.18,19.32-3.46,5.42-8.11,9.56-13.94,12.41,8.28,2.31,14.78,6.48,19.53,12.5ZM485.47,503.15v45.56h41.69c10.44,0,18.47-1.93,24.1-5.79,5.63-3.86,8.44-9.53,8.44-16.98s-2.81-13.12-8.44-16.98c-5.63-3.86-13.66-5.8-24.1-5.8h-41.69ZM558.28,606.87c5.84-3.79,8.76-9.76,8.76-17.89,0-15.86-11.6-23.8-34.77-23.8h-46.79v47.39h46.79c11.52,0,20.19-1.9,26.02-5.69Z"/><path class="cls-1" d="M744.47,486.68v142.37h-8.54l-97.01-123.66v123.66h-10.38v-142.37h8.74l96.81,123.66v-123.66h10.38Z"/><path class="cls-1" d="M1050.26,486.68l-63.46,142.37h-10.38l-63.46-142.37h11.4l57.55,128.94,57.57-128.94h10.78Z"/><path class="cls-1" d="M1155.22,629.04l-57.55-128.94-57.57,128.94h-11.39l63.46-142.37h10.38l63.44,142.37h-10.78Z"/><path class="cls-1" d="M1196.43,496.03h-51.24v-9.35h112.88v9.35h-51.26v133.02h-10.38v-133.02Z"/><path class="cls-1" d="M1278.59,486.68h10.38v142.37h-10.38v-142.37Z"/><path class="cls-1" d="M1345.68,620.6c-11.26-6.31-20.11-14.95-26.55-25.93-6.44-10.98-9.65-23.25-9.65-36.82s3.21-25.83,9.65-36.81c6.44-10.98,15.29-19.62,26.55-25.93,11.26-6.31,23.87-9.46,37.82-9.46s26.58,3.12,37.84,9.35c11.26,6.24,20.09,14.85,26.55,25.84,6.44,10.98,9.65,23.32,9.65,37.01s-3.21,26.04-9.65,37.02c-6.46,10.98-15.29,19.6-26.55,25.83-11.26,6.24-23.87,9.36-37.84,9.36s-26.57-3.15-37.82-9.46ZM1415.84,612.37c9.63-5.42,17.21-12.92,22.77-22.48,5.56-9.56,8.34-20.23,8.34-32.04s-2.78-22.47-8.34-32.03c-5.56-9.56-13.14-17.05-22.77-22.48-9.63-5.42-20.41-8.14-32.34-8.14s-22.74,2.71-32.44,8.14c-9.68,5.43-17.31,12.92-22.87,22.48-5.56,9.56-8.34,20.23-8.34,32.03s2.78,22.48,8.34,32.04c5.56,9.56,13.19,17.06,22.87,22.48,9.7,5.42,20.51,8.14,32.44,8.14s22.71-2.71,32.34-8.14Z"/><path class="cls-1" d="M1594.58,486.68v142.37h-8.56l-97.01-123.66v123.66h-10.38v-142.37h8.76l96.81,123.66v-123.66h10.38Z"/><path class="cls-1" d="M1637.18,624.68c-9.43-3.59-16.78-8.24-22.08-13.94l4.68-7.73c5.02,5.29,11.77,9.6,20.24,12.92,8.47,3.33,17.38,4.98,26.75,4.98,13.56,0,23.78-2.57,30.7-7.73,6.92-5.15,10.38-11.86,10.38-20.13,0-6.37-1.84-11.45-5.5-15.25-3.66-3.8-8.21-6.71-13.62-8.75-5.43-2.04-12.74-4.14-21.96-6.31-10.44-2.57-18.82-5.08-25.13-7.52-6.31-2.44-11.67-6.21-16.07-11.29-4.4-5.08-6.6-11.9-6.6-20.44,0-6.92,1.84-13.25,5.5-19.02,3.66-5.76,9.25-10.34,16.77-13.73,7.53-3.38,16.92-5.08,28.17-5.08,7.86,0,15.59,1.15,23.19,3.46,7.6,2.3,14.17,5.42,19.73,9.35l-3.86,8.34c-5.69-3.93-11.97-6.92-18.82-8.95-6.85-2.03-13.59-3.05-20.24-3.05-13.14,0-23.11,2.64-29.89,7.93-6.79,5.29-10.16,12.14-10.16,20.54,0,6.38,1.82,11.46,5.48,15.26,3.67,3.8,8.21,6.71,13.64,8.74,5.41,2.04,12.81,4.2,22.16,6.51,10.44,2.57,18.79,5.08,25.01,7.52,6.24,2.44,11.57,6.14,15.97,11.09,4.4,4.95,6.6,11.63,6.6,20.03,0,6.92-1.85,13.22-5.58,18.92-3.74,5.69-9.47,10.24-17.2,13.62-7.73,3.39-17.21,5.09-28.47,5.09-10.44,0-20.37-1.8-29.79-5.39Z"/><path class="cls-1" d="M903.3,521.18c-6.44-10.96-15.25-19.54-26.48-25.77-6.57-3.64-13.61-6.18-21.11-7.69v9.85c5.51,1.35,10.72,3.4,15.63,6.16,9.61,5.41,17.17,12.88,22.71,22.42,5.55,9.53,8.32,20.18,8.32,31.94s-2.77,22.42-8.32,31.95c-5.55,9.53-13.11,17.01-22.71,22.42-9.61,5.41-20.35,8.11-32.25,8.11s-22.68-2.71-32.35-8.11c-9.66-5.41-17.27-12.88-22.81-22.42-5.55-9.53-8.32-20.18-8.32-31.95s2.77-22.41,8.32-31.94c5.55-9.53,13.16-17,22.81-22.42,3.77-2.11,7.72-3.79,11.82-5.08v-10.02c-6.04,1.57-11.78,3.85-17.19,6.89-11.22,6.29-20.06,14.91-26.48,25.86-6.42,10.95-9.62,23.19-9.62,36.71s3.2,25.77,9.62,36.72c6.42,10.95,15.25,19.57,26.48,25.86,11.22,6.29,23.8,9.43,37.72,9.43s26.51-3.11,37.73-9.33c11.22-6.21,20.04-14.81,26.48-25.76,6.42-10.95,9.62-23.26,9.62-36.92s-3.2-25.96-9.62-36.91Z"/><path class="cls-2" d="M847.26,476.35c-1.94-1.85-2.9-4.14-2.9-6.88s.96-5.06,2.9-7c1.92-1.92,4.26-2.89,6.99-2.89s5.06.92,6.99,2.77c1.94,1.85,2.9,4.14,2.9,6.88s-.96,5.06-2.9,6.99c-1.92,1.93-4.26,2.9-6.99,2.9s-5.06-.92-6.99-2.77Z"/><path class="cls-2" d="M829.66,497.36c-1.94-1.85-2.9-4.14-2.9-6.88s.96-5.06,2.9-7c1.92-1.92,4.26-2.89,6.99-2.89s5.06.92,6.99,2.77c1.94,1.85,2.9,4.14,2.9,6.88s-.96,5.06-2.9,6.99c-1.92,1.93-4.26,2.9-6.99,2.9s-5.06-.92-6.99-2.77Z"/><path class="cls-2" d="M832.32,460.28c-1.2-1.15-1.8-2.56-1.8-4.26s.6-3.13,1.8-4.33c1.19-1.19,2.64-1.79,4.33-1.79s3.13.57,4.33,1.71c1.2,1.15,1.8,2.56,1.8,4.26s-.6,3.13-1.8,4.33c-1.19,1.2-2.64,1.79-4.33,1.79s-3.13-.57-4.33-1.71Z"/><path class="cls-2" d="M859.54,560.26c-5.67,0-11.12.94-16.2,2.66-1.53.52-3.02,1.11-4.47,1.77-1.46.66-2.88,1.38-4.25,2.17-.46.26-.91.53-1.36.81,0,0,0,0,0,0-7.36,4.22-15.89,6.62-24.98,6.62-6.6,0-12.91-1.27-18.68-3.58,2.96,12.33,10.45,22.89,20.62,29.82,8.07,5.51,17.82,8.72,28.33,8.72,24.36,0,44.7-17.55,49.37-40.53-8.07-5.51-17.86-8.47-28.37-8.47Z"/></svg>