<?xml version="1.0" encoding="UTF-8"?><svg id="Layer_5" xmlns="http://www.w3.org/2000/svg" viewBox="0 0 1920 1080"><defs><style>.cls-1{fill:#f8ec84;}.cls-2{fill:#982d7c;}</style></defs><path class="cls-2" d="M770.44,874.25c40.75-8.01,81.5-30.98,117.15-47.63,20.36-11.07,108.45-38.57,137.9-46.02,92.54-22.18,355.79,4.14,387.3-36.66,37.77-21.66,69.49-58.9,63.93-105.9-5.3-36.59-13.78-72.29-25.99-105.81-5.9-16.2-61.54-97.46-82.7-114.99-33.19-37.58-71.63-68.75-119.09-100.4-5.74-4.96-55.48-26.33-92.14-28.4-62.41-3.52-120.79,47.42-182.53,9.04-48.63-20.77-106.44-63.26-143.1-80.55-64.22-24.94-105.25-11.36-140.02,51.97-24.78,42.49-36.5,77.17-86.57,92.72-91.66,28.29-144.76,59.26-160.05,150.7-8.66,57.87,13.17,122.58,51.49,169.88,63.56,82.12,176.76,201.72,274.42,192.02Z"/><path class="cls-1" d="M614.19,513.21l-.02.05c-1.4-3.3-7.38-17.72-13.09-31.43l-4.96-11.86c-1.99-4.74-3.72-8.85-4.9-11.61-4.5-10.72-3.86-14.37,3.43-14.37v-1.07h-50.41v1.07c9.44,0,13.3,10.51,17.59,20.16,5.79,13.08,37.32,84.72,37.32,84.72h4.5l10.91-34.75-.38-.91Z"/><path class="cls-1" d="M670.71,516.87c-5.64,17.19-10.42,31.99-10.42,31.99h-4.17l-22.48-51.05-8.1-18.66-.05.17-.38-.87,11.16-35.55h4.07l17.33,42.2,12.7,30.93.33.82Z"/><line class="cls-1" x1="670.71" y1="516.87" x2="670.38" y2="516.05"/><path class="cls-1" d="M1282.02,658.26c.21,17.37,2.14,23.38,13.51,23.38v1.07h-59.2v-1.07c11.37,0,13.51-6.22,13.51-23.59v-48.05c0-14.58,1.07-33.24-14.59-33.24-8.79,0-18.45,6.65-23.38,16.94v64.35c0,17.38,2.14,23.59,13.51,23.59v1.07h-59.2v-1.07c11.37,0,13.3-6.22,13.51-23.59v-108.75c-.21-15.66-1.29-23.38-13.51-23.38v-1.07h49.33v1.07c-2.14,1.07-3.65,10.51-3.65,32.17v33.46c6.86-10.51,14.8-16.94,32.39-16.94,22.74,0,37.75,12.01,37.75,39.47v44.19Z"/><path class="cls-1" d="M810.3,576.2c-15.66,0-25.95,9.44-31.32,20.38v-36.89c0-.59,0-1.17,0-1.74-20.87.81-29.16-7.72-32.4-13.68.12,2,.19,4.19.22,6.63v133.41h1.07s28.1-22.31,37.97-11.37c4.93,5.36,12.01,13.51,26.38,13.51,31.32,0,47.4-18.23,47.4-55.13s-24.02-55.12-49.33-55.12ZM806.86,684.3c-11.58,0-21.66-10.94-25.31-23.38-1.29-4.72-2.57-13.94-2.57-29.6v-32.17c4.72-13.51,17.8-21.45,27.03-21.45,17.8,0,20.81,20.38,20.81,53.62s-5.79,52.98-19.95,52.98Z"/><path class="cls-1" d="M863.94,473.8c6.23-2.14,7.29-10.73,2.58-17.8-1.93-2.85-5.71-6.37-11.37-9.29.49.9.86,1.85,1.09,2.87.32,1.35.36,2.71.19,4.06v.02c0,3.77-3.61,7.28-4.07,11.78-.43,6.23,6.01,10.51,11.57,8.37Z"/><path class="cls-1" d="M815.9,458.13c0-.98.06-1.92.17-2.82.02-.05.02-.08.02-.11.16-1.16.41-2.24.76-3.25.1-.25.19-.51.29-.76.06-.16.14-.3.22-.48.6-1.35,1.38-2.55,2.35-3.58.02-.03.03-.05.06-.06,2.09-2.47,4.99-4.6,8.47-6.07-19.23.33-35.74,9.16-36.78,27.87-2.36,41.82,63.48,34.74,61.98,63.48-.06,1.08-.21,2.12-.44,3.11-.02.05-.02.1-.03.14-.3,1.24-.73,2.39-1.27,3.49-.14.29-.3.55-.46.84-.51.89-1.11,1.73-1.81,2.54-2.87,3.41-7.21,6.33-12.46,8.26,21.88-1.78,37.1-12.19,39.43-29.31,5.79-43.54-60.48-39.46-60.48-63.28Z"/><path class="cls-1" d="M1155.17,608.06c6.23-2.14,7.29-10.73,2.58-17.8-1.93-2.85-5.71-6.37-11.37-9.29.49.9.86,1.85,1.09,2.87.32,1.35.36,2.71.19,4.06v.02c0,3.77-3.61,7.28-4.07,11.78-.43,6.23,6.01,10.51,11.57,8.37Z"/><path class="cls-1" d="M1107.14,592.4c0-.98.06-1.92.17-2.82.02-.05.02-.08.02-.11.16-1.16.41-2.24.76-3.25.1-.25.19-.51.29-.76.06-.16.14-.3.22-.48.6-1.35,1.38-2.55,2.35-3.58.02-.03.03-.05.06-.06,2.09-2.47,4.99-4.6,8.47-6.07-19.23.33-35.74,9.16-36.78,27.87-2.36,41.82,63.48,34.74,61.98,63.48-.06,1.08-.21,2.12-.44,3.11-.02.05-.02.1-.03.14-.3,1.24-.73,2.39-1.27,3.49-.14.29-.3.55-.46.84-.51.89-1.11,1.73-1.81,2.54-2.87,3.41-7.21,6.33-12.46,8.26,21.88-1.78,37.1-12.19,39.43-29.31,5.79-43.54-60.48-39.46-60.48-63.28Z"/><path class="cls-1" d="M1131.83,549.72c-9.86,0-10.29-8.37-10.29-22.96v-49.97c0-26.14-21.34-34.28-40.32-35.61,2.43,1.86,4.28,4.19,5.33,6.82,2.98,5.72,2.6,14.97,2.6,25.8v19.72c-2.14,1.73-5.15,3.22-9.23,4.72-21.44,7.29-51.04,4.07-52.11,30.68-.86,23.37,26.59,25.3,42.68,20.37,9.01-2.57,15.24-9.43,19.31-18.01,3.65,18.22,25.95,19.94,38.38,19.94,4.07,0,8.37-1.08,10.94-2.58v-1.28c-1.06.86-4.07,2.36-7.29,2.36ZM1074.13,546.93c-13.08,6.66-18.66-3.42-17.15-22.94,1.28-19.53,13.51-21.45,24.02-25.32,3.42-1.28,6.21-2.57,8.15-3.85v30.88c0,1.51.22,2.79.43,4.07-3.42,7.29-8.15,13.73-15.44,17.15ZM1043.68,479.81c7.5,1.49,12.22-4.93,10.51-10.73-.75-2.62-2.46-4.61-3.92-6.6-2.33-2.66-3.71-5.93-3.71-9.43,0-1.19.16-2.35.46-3.46-5.33,3.96-8.66,8.59-10.21,12.19-3.65,8.8.43,16.74,6.87,18.03Z"/><path class="cls-1" d="M959.48,591.85c-1.93,8.15-12.23,9.22-17.16,6.22-8.15-5.36-3.86-15.87-11.58-13.51-7.29,2.15-15.66,13.94-19.09,25.52v49.55c.21,17.38,2.14,23.59,13.51,23.59v1.07h-59.2v-1.07c11.58,0,13.51-6.22,13.51-23.59v-56.84c0-17.59-1.93-23.38-13.51-23.38v-1.07h49.33v1.07c-1.93,1.07-3.22,9.22-3.43,27.67,5.79-18.44,21.66-30.03,30.46-30.89,12.66-1.07,19.73,6.01,17.16,15.66Z"/><path class="cls-1" d="M789.53,548.01c-9.86,0-10.29-8.36-10.29-22.94v-49.97c0-25.65-20.53-33.98-39.22-35.53,1.82,1.79,3.19,3.88,3.93,6.18,3.31,5.66,2.9,15.16,2.9,26.33v19.74c-2.14,1.71-5.15,3.22-9.23,4.72-21.44,7.28-51.04,4.07-52.11,30.66-.86,23.39,26.59,25.3,42.68,20.37,9.01-2.57,15.24-9.43,19.31-18.01,3.65,18.23,25.95,19.94,38.38,19.94,4.07,0,8.37-1.08,10.94-2.57v-1.28c-1.06.86-4.07,2.35-7.29,2.35ZM731.84,545.24c-13.08,6.64-18.66-3.44-17.15-22.96,1.28-19.52,13.51-21.45,24.02-25.3,3.42-1.3,6.21-2.58,8.15-3.87v30.88c0,1.51.22,2.79.43,4.07-3.42,7.29-8.15,13.73-15.44,17.17ZM701.38,478.09c7.52,1.51,12.22-4.93,10.51-10.72-1.08-3.79-4.2-6.29-5.61-9.35-1.68-2.38-2.63-5.14-2.63-8.07,0-.44.02-.87.08-1.3-4.74,3.79-7.75,8.07-9.21,11.43-3.65,8.78.43,16.73,6.87,18.01Z"/><path class="cls-1" d="M1070.47,659.85v-48.26c0-21.66,1.5-31.1,3.65-32.17v-1.07h-49.55v1.07c11.58,0,13.51,5.79,13.51,23.38v48.26c0,6.86,0,12.65-.43,17.16-4.93,9.87-14.37,16.09-22.95,16.09-15.44,0-14.37-18.66-14.37-33.24v-23.85h-.12v-101.21c0-.45-.02-.9-.02-1.36v-44.19c0-27.45-15.01-39.47-37.75-39.47-17.59,0-25.52,6.44-32.39,16.94v-33.46c0-21.66,1.5-31.1,3.65-32.17v-1.07h-49.33v1.07c12.23,0,13.3,7.72,13.51,23.38v108.75c-.21,17.37-2.14,23.59-13.51,23.59v1.07h59.2v-1.07c-11.37,0-13.51-6.22-13.51-23.59v-64.35c4.93-10.3,14.59-16.94,23.38-16.94,15.66,0,14.59,18.66,14.59,33.24v72.71h.01v29.26h-.08v53.42h0v15c0,27.67,15.23,39.68,37.96,39.68,16.94,0,25.1-6.01,31.74-16.09-.64,8.15-1.72,12.23-3,12.87v1.07h49.33v-1.07c-11.58,0-13.51-6.01-13.51-23.38Z"/><path class="cls-1" d="M816.09,455.2c.1-1.09.35-2.19.76-3.25-.35,1.01-.6,2.09-.76,3.25Z"/><path class="cls-1" d="M852.95,535.6c-.25,1.19-.67,2.35-1.27,3.49.54-1.09.97-2.25,1.27-3.49Z"/><path class="cls-1" d="M1325.83,551.37c0,12.68-9.97,22.63-22.91,22.63s-23.03-9.95-23.03-22.63,10.22-22.37,23.03-22.37,22.91,9.97,22.91,22.37ZM1282.27,551.16c0,11.21,8.79,20.12,20.82,20.12s20.34-8.91,20.34-19.97-8.63-20.27-20.5-20.27-20.66,9.06-20.66,20.12ZM1299.37,563.09h-5.18v-22.36c2.05-.41,4.92-.69,8.59-.69,4.22,0,6.14.69,7.77,1.64,1.23.96,2.18,2.73,2.18,4.92,0,2.45-1.91,4.36-4.64,5.18v.27c2.18.81,3.41,2.45,4.09,5.45.68,3.41,1.09,4.78,1.64,5.6h-5.6c-.68-.81-1.09-2.86-1.77-5.45-.4-2.46-1.77-3.54-4.64-3.54h-2.45v8.99ZM1299.5,550.41h2.46c2.86,0,5.17-.95,5.17-3.26,0-2.05-1.49-3.41-4.77-3.41-1.36,0-2.32.13-2.86.27v6.41Z"/></svg>