<?xml version="1.0" encoding="UTF-8"?>
<svg xmlns="http://www.w3.org/2000/svg" version="1.1" viewBox="0 0 1920 1080">
  <!-- Generator: Adobe Illustrator 29.5.1, SVG Export Plug-In . SVG Version: 2.1.0 Build 141)  -->
  <defs>
    <style>
      .st0 {
        fill: none;
      }

      .st1 {
        fill: #121718;
      }

      .st2 {
        fill: #f8ec84;
      }

      .st3 {
        fill: #1d1d1b;
      }

      .st4 {
        fill: #1080b3;
      }

      .st5 {
        fill: #982d7c;
      }

      .st6 {
        fill: #007cab;
      }

      .st7 {
        display: none;
      }
    </style>
  </defs>
  <g id="logo" class="st7">
    <g>
      <path class="st6" d="M201.8,486.7h20.3v124.7h77.1v17.7h-97.4v-142.4Z"/>
      <path class="st6" d="M434.4,629l-51.7-116.9-51.2,116.9h-22l62.6-142.4h20.1l62.4,142.4h-20.3Z"/>
      <path class="st6" d="M580.5,567.7c4.7,6,7.1,13.7,7.1,22.9s-4.7,21.8-13.9,28.5c-9.3,6.6-22.8,10-40.6,10h-67.9v-142.4h63.9c16.3,0,28.8,3.3,37.7,9.8,8.9,6.5,13.3,15.5,13.3,27.1s-1.7,13.9-5.2,19.3c-3.5,5.4-8.1,9.6-13.9,12.4,8.3,2.3,14.8,6.5,19.5,12.5ZM485.5,503.1v45.6h41.7c10.4,0,18.5-1.9,24.1-5.8,5.6-3.9,8.4-9.5,8.4-17s-2.8-13.1-8.4-17c-5.6-3.9-13.7-5.8-24.1-5.8h-41.7ZM558.3,606.9c5.8-3.8,8.8-9.8,8.8-17.9,0-15.9-11.6-23.8-34.8-23.8h-46.8v47.4h46.8c11.5,0,20.2-1.9,26-5.7Z"/>
      <path class="st3" d="M744.5,486.7v142.4h-8.5l-97-123.7v123.7h-10.4v-142.4h8.7l96.8,123.7v-123.7h10.4Z"/>
      <path class="st3" d="M1050.3,486.7l-63.5,142.4h-10.4l-63.5-142.4h11.4l57.5,128.9,57.6-128.9h10.8Z"/>
      <path class="st3" d="M1155.2,629l-57.5-128.9-57.6,128.9h-11.4l63.5-142.4h10.4l63.4,142.4h-10.8Z"/>
      <path class="st3" d="M1196.4,496h-51.2v-9.4h112.9v9.4h-51.3v133h-10.4v-133Z"/>
      <path class="st3" d="M1278.6,486.7h10.4v142.4h-10.4v-142.4Z"/>
      <path class="st3" d="M1345.7,620.6c-11.3-6.3-20.1-14.9-26.5-25.9-6.4-11-9.6-23.3-9.6-36.8s3.2-25.8,9.6-36.8c6.4-11,15.3-19.6,26.5-25.9,11.3-6.3,23.9-9.5,37.8-9.5s26.6,3.1,37.8,9.4c11.3,6.2,20.1,14.8,26.5,25.8,6.4,11,9.6,23.3,9.6,37s-3.2,26-9.6,37c-6.5,11-15.3,19.6-26.5,25.8-11.3,6.2-23.9,9.4-37.8,9.4s-26.6-3.2-37.8-9.5ZM1415.8,612.4c9.6-5.4,17.2-12.9,22.8-22.5,5.6-9.6,8.3-20.2,8.3-32s-2.8-22.5-8.3-32c-5.6-9.6-13.1-17-22.8-22.5-9.6-5.4-20.4-8.1-32.3-8.1s-22.7,2.7-32.4,8.1c-9.7,5.4-17.3,12.9-22.9,22.5-5.6,9.6-8.3,20.2-8.3,32s2.8,22.5,8.3,32c5.6,9.6,13.2,17.1,22.9,22.5,9.7,5.4,20.5,8.1,32.4,8.1s22.7-2.7,32.3-8.1Z"/>
      <path class="st3" d="M1594.6,486.7v142.4h-8.6l-97-123.7v123.7h-10.4v-142.4h8.8l96.8,123.7v-123.7h10.4Z"/>
      <path class="st3" d="M1637.2,624.7c-9.4-3.6-16.8-8.2-22.1-13.9l4.7-7.7c5,5.3,11.8,9.6,20.2,12.9,8.5,3.3,17.4,5,26.7,5,13.6,0,23.8-2.6,30.7-7.7,6.9-5.1,10.4-11.9,10.4-20.1s-1.8-11.5-5.5-15.3c-3.7-3.8-8.2-6.7-13.6-8.7-5.4-2-12.7-4.1-22-6.3-10.4-2.6-18.8-5.1-25.1-7.5-6.3-2.4-11.7-6.2-16.1-11.3-4.4-5.1-6.6-11.9-6.6-20.4s1.8-13.2,5.5-19c3.7-5.8,9.3-10.3,16.8-13.7,7.5-3.4,16.9-5.1,28.2-5.1s15.6,1.2,23.2,3.5c7.6,2.3,14.2,5.4,19.7,9.4l-3.9,8.3c-5.7-3.9-12-6.9-18.8-9-6.9-2-13.6-3-20.2-3-13.1,0-23.1,2.6-29.9,7.9-6.8,5.3-10.2,12.1-10.2,20.5s1.8,11.5,5.5,15.3c3.7,3.8,8.2,6.7,13.6,8.7,5.4,2,12.8,4.2,22.2,6.5,10.4,2.6,18.8,5.1,25,7.5,6.2,2.4,11.6,6.1,16,11.1,4.4,4.9,6.6,11.6,6.6,20s-1.9,13.2-5.6,18.9c-3.7,5.7-9.5,10.2-17.2,13.6-7.7,3.4-17.2,5.1-28.5,5.1s-20.4-1.8-29.8-5.4Z"/>
      <g>
        <g>
          <path class="st3" d="M903.3,521.2c-6.4-11-15.3-19.5-26.5-25.8-6.6-3.6-13.6-6.2-21.1-7.7v9.8c5.5,1.4,10.7,3.4,15.6,6.2,9.6,5.4,17.2,12.9,22.7,22.4,5.5,9.5,8.3,20.2,8.3,31.9s-2.8,22.4-8.3,31.9c-5.5,9.5-13.1,17-22.7,22.4-9.6,5.4-20.4,8.1-32.3,8.1s-22.7-2.7-32.4-8.1c-9.7-5.4-17.3-12.9-22.8-22.4-5.5-9.5-8.3-20.2-8.3-31.9s2.8-22.4,8.3-31.9c5.5-9.5,13.2-17,22.8-22.4,3.8-2.1,7.7-3.8,11.8-5.1v-10c-6,1.6-11.8,3.9-17.2,6.9-11.2,6.3-20.1,14.9-26.5,25.9-6.4,11-9.6,23.2-9.6,36.7s3.2,25.8,9.6,36.7c6.4,11,15.3,19.6,26.5,25.9,11.2,6.3,23.8,9.4,37.7,9.4s26.5-3.1,37.7-9.3c11.2-6.2,20-14.8,26.5-25.8,6.4-11,9.6-23.3,9.6-36.9s-3.2-26-9.6-36.9Z"/>
          <path class="st6" d="M847.3,476.4c-1.9-1.9-2.9-4.1-2.9-6.9s1-5.1,2.9-7c1.9-1.9,4.3-2.9,7-2.9s5.1.9,7,2.8c1.9,1.9,2.9,4.1,2.9,6.9s-1,5.1-2.9,7c-1.9,1.9-4.3,2.9-7,2.9s-5.1-.9-7-2.8Z"/>
          <path class="st6" d="M829.7,497.4c-1.9-1.9-2.9-4.1-2.9-6.9s1-5.1,2.9-7c1.9-1.9,4.3-2.9,7-2.9s5.1.9,7,2.8c1.9,1.9,2.9,4.1,2.9,6.9s-1,5.1-2.9,7c-1.9,1.9-4.3,2.9-7,2.9s-5.1-.9-7-2.8Z"/>
          <path class="st6" d="M832.3,460.3c-1.2-1.1-1.8-2.6-1.8-4.3s.6-3.1,1.8-4.3c1.2-1.2,2.6-1.8,4.3-1.8s3.1.6,4.3,1.7c1.2,1.1,1.8,2.6,1.8,4.3s-.6,3.1-1.8,4.3c-1.2,1.2-2.6,1.8-4.3,1.8s-3.1-.6-4.3-1.7Z"/>
        </g>
        <path class="st6" d="M859.5,560.3c-5.7,0-11.1.9-16.2,2.7-1.5.5-3,1.1-4.5,1.8-1.5.7-2.9,1.4-4.3,2.2-.5.3-.9.5-1.4.8,0,0,0,0,0,0-7.4,4.2-15.9,6.6-25,6.6s-12.9-1.3-18.7-3.6c3,12.3,10.4,22.9,20.6,29.8,8.1,5.5,17.8,8.7,28.3,8.7,24.4,0,44.7-17.6,49.4-40.5-8.1-5.5-17.9-8.5-28.4-8.5Z"/>
      </g>
    </g>
  </g>
  <g id="isotipo" class="st7">
    <g>
      <g>
        <path class="st3" d="M1124.6,491.7c-16.5-28.1-39.1-50.1-67.9-66.1-16.8-9.3-34.9-15.8-54.1-19.7v25.2c14.1,3.5,27.5,8.7,40.1,15.8,24.6,13.9,44,33,58.2,57.5,14.2,24.4,21.3,51.7,21.3,81.9s-7.1,57.5-21.3,81.9c-14.2,24.4-33.6,43.6-58.2,57.5-24.6,13.9-52.2,20.8-82.7,20.8s-58.2-6.9-83-20.8c-24.8-13.9-44.3-33-58.5-57.5-14.2-24.4-21.3-51.7-21.3-81.9s7.1-57.5,21.3-81.9c14.2-24.4,33.7-43.6,58.5-57.5,9.7-5.4,19.8-9.7,30.3-13v-25.7c-15.5,4-30.2,9.9-44.1,17.7-28.8,16.1-51.4,38.2-67.9,66.3-16.5,28.1-24.7,59.5-24.7,94.1s8.2,66.1,24.7,94.2c16.5,28.1,39.1,50.2,67.9,66.3,28.8,16.1,61,24.2,96.7,24.2s68-8,96.8-23.9c28.8-15.9,51.4-38,67.9-66.1,16.5-28.1,24.7-59.6,24.7-94.7s-8.2-66.6-24.7-94.6Z"/>
        <path class="st6" d="M982.4,376.8c-5-4.8-7.4-10.6-7.4-17.6s2.5-13,7.4-17.9c4.9-4.9,10.9-7.4,17.9-7.4s13,2.4,17.9,7.1c5,4.8,7.4,10.6,7.4,17.6s-2.5,13-7.4,17.9c-4.9,5-10.9,7.4-17.9,7.4s-13-2.4-17.9-7.1Z"/>
        <path class="st6" d="M937.2,430.7c-5-4.8-7.4-10.6-7.4-17.6s2.5-13,7.4-17.9c4.9-4.9,10.9-7.4,17.9-7.4s13,2.4,17.9,7.1c5,4.8,7.4,10.6,7.4,17.6s-2.5,13-7.4,17.9c-4.9,5-10.9,7.4-17.9,7.4s-13-2.4-17.9-7.1Z"/>
        <path class="st6" d="M944.1,335.6c-3.1-2.9-4.6-6.6-4.6-10.9s1.5-8,4.6-11.1c3.1-3.1,6.8-4.6,11.1-4.6s8,1.5,11.1,4.4c3.1,2.9,4.6,6.6,4.6,10.9s-1.5,8-4.6,11.1c-3.1,3.1-6.8,4.6-11.1,4.6s-8-1.5-11.1-4.4Z"/>
        <polyline class="st0" points="833.4 652.9 835.2 651.6 836.2 650.9"/>
      </g>
      <path class="st6" d="M1013.8,591.9c-14.5,0-28.5,2.4-41.5,6.8-3.9,1.3-7.7,2.8-11.5,4.5-3.7,1.7-7.4,3.5-10.9,5.6-1.2.7-2.3,1.4-3.5,2.1,0,0,0,0,0,0-18.9,10.8-40.7,17-64.1,17s-33.1-3.3-47.9-9.2c7.6,31.6,26.8,58.7,52.9,76.5,20.7,14.1,45.7,22.4,72.6,22.4,62.5,0,114.6-45,126.6-103.9-20.7-14.1-45.8-21.7-72.7-21.7Z"/>
    </g>
  </g>
  <g id="Layer_3" class="st7">
    <g>
      <path class="st1" d="M826.8,711.6v-69h44.5v1.9h-42.5v67.1h-2ZM828.3,679.5v-1.9h38.6v1.9h-38.6Z"/>
      <path class="st1" d="M873.2,711.6l32-69h2l32,69h-2.3l-31.3-67.4h1l-31.3,67.4h-2.3ZM883.7,690.8l1-1.9h42.9l1,1.9h-44.9Z"/>
      <path class="st1" d="M953.2,711.6v-69h23.4c8.5,0,15.1,2,19.9,6,4.8,4,7.2,9.5,7.2,16.7s-1.1,8.8-3.3,12.2c-2.2,3.4-5.3,6-9.3,7.8-4,1.8-8.9,2.7-14.5,2.7h-22.3l.9-.9v24.5h-2ZM955.2,686.9l-.9-.8h22.5c8.1,0,14.3-1.8,18.5-5.5,4.3-3.6,6.4-8.8,6.4-15.3s-2.1-11.8-6.4-15.4c-4.3-3.6-10.5-5.4-18.5-5.4h-22.5l.9-.8v43.2ZM1002.2,711.6l-18-25h2.5l18,25h-2.5Z"/>
      <path class="st1" d="M1023.8,711.6v-69h1.7l32.8,57.4h-.9l32.7-57.4h1.7v69h-2v-66.2h.8l-32.2,56.4h-1.2l-32.3-56.4h.9v66.2h-2Z"/>
      <path class="st1" d="M1105.8,711.6l32-69h2l32,69h-2.3l-31.3-67.4h1l-31.3,67.4h-2.3ZM1116.4,690.8l1-1.9h42.9l1,1.9h-44.9Z"/>
    </g>
    <rect class="st4" x="1282.7" y="671.1" width="587.6" height="8.2"/>
    <rect class="st4" x="88.8" y="671.1" width="587.6" height="8.2"/>
    <g>
      <path class="st6" d="M88.3,436.3h23.9v146.5h90.6v20.8h-114.5v-167.3Z"/>
      <path class="st6" d="M361.7,603.6l-60.7-137.4-60.2,137.4h-25.8l73.6-167.3h23.7l73.4,167.3h-23.9Z"/>
      <path class="st6" d="M533.3,531.6c5.6,7.1,8.4,16.1,8.4,26.9s-5.5,25.7-16.4,33.5c-10.9,7.8-26.8,11.7-47.7,11.7h-79.8v-167.3h75.1c19.1,0,33.9,3.8,44.3,11.5,10.4,7.7,15.7,18.3,15.7,31.8s-2,16.3-6.1,22.7c-4.1,6.4-9.5,11.2-16.4,14.6,9.7,2.7,17.4,7.6,23,14.7ZM421.7,455.7v53.5h49c12.3,0,21.7-2.3,28.3-6.8,6.6-4.5,9.9-11.2,9.9-20s-3.3-15.4-9.9-20c-6.6-4.5-16-6.8-28.3-6.8h-49ZM507.3,577.6c6.9-4.5,10.3-11.5,10.3-21,0-18.6-13.6-28-40.9-28h-55v55.7h55c13.5,0,23.7-2.2,30.6-6.7Z"/>
      <path class="st3" d="M726.1,436.3v167.3h-10l-114-145.3v145.3h-12.2v-167.3h10.3l113.8,145.3v-145.3h12.2Z"/>
      <path class="st3" d="M1085.4,436.3l-74.6,167.3h-12.2l-74.6-167.3h13.4l67.6,151.5,67.6-151.5h12.7Z"/>
      <path class="st3" d="M1208.8,603.6l-67.6-151.5-67.6,151.5h-13.4l74.6-167.3h12.2l74.6,167.3h-12.7Z"/>
      <path class="st3" d="M1257.2,447.3h-60.2v-11h132.7v11h-60.2v156.3h-12.2v-156.3Z"/>
      <path class="st3" d="M1353.7,436.3h12.2v167.3h-12.2v-167.3Z"/>
      <path class="st3" d="M1432.6,593.7c-13.2-7.4-23.6-17.6-31.2-30.5-7.6-12.9-11.3-27.3-11.3-43.3s3.8-30.4,11.3-43.3c7.6-12.9,18-23.1,31.2-30.5,13.2-7.4,28-11.1,44.4-11.1s31.2,3.7,44.5,11c13.2,7.3,23.6,17.4,31.2,30.4,7.6,12.9,11.3,27.4,11.3,43.5s-3.8,30.6-11.3,43.5c-7.6,12.9-18,23-31.2,30.4-13.2,7.3-28,11-44.5,11s-31.2-3.7-44.4-11.1ZM1515,584c11.3-6.4,20.2-15.2,26.8-26.4,6.5-11.2,9.8-23.8,9.8-37.6s-3.3-26.4-9.8-37.6c-6.5-11.2-15.4-20-26.8-26.4-11.3-6.4-24-9.6-38-9.6s-26.7,3.2-38.1,9.6c-11.4,6.4-20.3,15.2-26.9,26.4-6.5,11.2-9.8,23.8-9.8,37.6s3.3,26.4,9.8,37.6,15.5,20,26.9,26.4c11.4,6.4,24.1,9.6,38.1,9.6s26.7-3.2,38-9.6Z"/>
      <path class="st3" d="M1725.1,436.3v167.3h-10.1l-114-145.3v145.3h-12.2v-167.3h10.3l113.8,145.3v-145.3h12.2Z"/>
      <path class="st3" d="M1775.1,598.5c-11.1-4.2-19.7-9.7-25.9-16.4l5.5-9.1c5.9,6.2,13.8,11.3,23.8,15.2,10,3.9,20.4,5.9,31.4,5.9,15.9,0,28-3,36.1-9.1,8.1-6,12.2-13.9,12.2-23.7s-2.2-13.5-6.5-17.9c-4.3-4.5-9.6-7.9-16-10.3-6.4-2.4-15-4.9-25.8-7.4-12.3-3-22.1-6-29.5-8.8-7.4-2.9-13.7-7.3-18.9-13.3-5.2-6-7.8-14-7.8-24s2.2-15.6,6.5-22.3c4.3-6.8,10.9-12.1,19.7-16.1,8.9-4,19.9-6,33.1-6s18.3,1.4,27.3,4.1c8.9,2.7,16.6,6.4,23.2,11l-4.5,9.8c-6.7-4.6-14.1-8.1-22.1-10.5-8.1-2.4-16-3.6-23.8-3.6-15.4,0-27.2,3.1-35.1,9.3-8,6.2-11.9,14.3-11.9,24.1s2.1,13.5,6.4,17.9c4.3,4.5,9.6,7.9,16,10.3,6.4,2.4,15.1,4.9,26,7.7,12.3,3,22.1,6,29.4,8.8,7.3,2.9,13.6,7.2,18.8,13,5.2,5.8,7.8,13.7,7.8,23.5s-2.2,15.5-6.6,22.2c-4.4,6.7-11.1,12-20.2,16-9.1,4-20.2,6-33.5,6s-23.9-2.1-35-6.3Z"/>
      <g>
        <g>
          <path class="st3" d="M912.7,476.9c-7.6-12.9-17.9-23-31.1-30.3-7.7-4.3-16-7.3-24.8-9v11.6c6.5,1.6,12.6,4,18.4,7.2,11.3,6.4,20.2,15.1,26.7,26.3,6.5,11.2,9.8,23.7,9.8,37.5s-3.3,26.3-9.8,37.5c-6.5,11.2-15.4,20-26.7,26.3-11.3,6.4-23.9,9.5-37.9,9.5s-26.7-3.2-38-9.5c-11.3-6.4-20.3-15.1-26.8-26.3-6.5-11.2-9.8-23.7-9.8-37.5s3.3-26.3,9.8-37.5c6.5-11.2,15.5-20,26.8-26.3,4.4-2.5,9.1-4.5,13.9-6v-11.8c-7.1,1.8-13.8,4.5-20.2,8.1-13.2,7.4-23.6,17.5-31.1,30.4-7.5,12.9-11.3,27.3-11.3,43.1s3.8,30.3,11.3,43.2c7.5,12.9,17.9,23,31.1,30.4,13.2,7.4,28,11.1,44.3,11.1s31.2-3.7,44.3-11c13.2-7.3,23.5-17.4,31.1-30.3,7.5-12.9,11.3-27.3,11.3-43.4s-3.8-30.5-11.3-43.4Z"/>
          <path class="st6" d="M846.9,424.2c-2.3-2.2-3.4-4.9-3.4-8.1s1.1-6,3.4-8.2c2.3-2.3,5-3.4,8.2-3.4s6,1.1,8.2,3.3c2.3,2.2,3.4,4.9,3.4,8.1s-1.1,6-3.4,8.2c-2.3,2.3-5,3.4-8.2,3.4s-6-1.1-8.2-3.3Z"/>
          <path class="st6" d="M826.2,448.9c-2.3-2.2-3.4-4.9-3.4-8.1s1.1-6,3.4-8.2c2.3-2.3,5-3.4,8.2-3.4s6,1.1,8.2,3.3c2.3,2.2,3.4,4.9,3.4,8.1s-1.1,6-3.4,8.2c-2.3,2.3-5,3.4-8.2,3.4s-6-1.1-8.2-3.3Z"/>
          <path class="st6" d="M829.3,405.3c-1.4-1.3-2.1-3-2.1-5s.7-3.7,2.1-5.1c1.4-1.4,3.1-2.1,5.1-2.1s3.7.7,5.1,2c1.4,1.3,2.1,3,2.1,5s-.7,3.7-2.1,5.1c-1.4,1.4-3.1,2.1-5.1,2.1s-3.7-.7-5.1-2Z"/>
        </g>
        <path class="st6" d="M861.3,522.8c-6.7,0-13.1,1.1-19,3.1-1.8.6-3.5,1.3-5.3,2.1-1.7.8-3.4,1.6-5,2.5-.5.3-1.1.6-1.6,1,0,0,0,0,0,0-8.7,5-18.7,7.8-29.4,7.8s-15.2-1.5-22-4.2c3.5,14.5,12.3,26.9,24.2,35,9.5,6.5,20.9,10.3,33.3,10.3,28.6,0,52.5-20.6,58-47.6-9.5-6.5-21-10-33.3-10Z"/>
      </g>
    </g>
  </g>
  <g id="Layer_5" class="st7">
    <g>
      <path class="st5" d="M770.4,874.2c40.8-8,81.5-31,117.2-47.6,20.4-11.1,108.5-38.6,137.9-46,92.5-22.2,355.8,4.1,387.3-36.7,37.8-21.7,69.5-58.9,63.9-105.9-5.3-36.6-13.8-72.3-26-105.8-5.9-16.2-61.5-97.5-82.7-115-33.2-37.6-71.6-68.7-119.1-100.4-5.7-5-55.5-26.3-92.1-28.4-62.4-3.5-120.8,47.4-182.5,9-48.6-20.8-106.4-63.3-143.1-80.6-64.2-24.9-105.2-11.4-140,52-24.8,42.5-36.5,77.2-86.6,92.7-91.7,28.3-144.8,59.3-160.1,150.7-8.7,57.9,13.2,122.6,51.5,169.9,63.6,82.1,176.8,201.7,274.4,192Z"/>
      <g>
        <g>
          <path class="st2" d="M614.2,513.2h0c-1.4-3.2-7.4-17.7-13.1-31.4l-5-11.9c-2-4.7-3.7-8.9-4.9-11.6-4.5-10.7-3.9-14.4,3.4-14.4v-1.1h-50.4v1.1c9.4,0,13.3,10.5,17.6,20.2,5.8,13.1,37.3,84.7,37.3,84.7h4.5l10.9-34.8-.4-.9Z"/>
          <path class="st2" d="M670.7,516.9c-5.6,17.2-10.4,32-10.4,32h-4.2l-22.5-51.1-8.1-18.7v.2s-.4-.9-.4-.9l11.2-35.5h4.1l17.3,42.2,12.7,30.9.3.8Z"/>
        </g>
        <line class="st2" x1="670.7" y1="516.9" x2="670.4" y2="516"/>
        <path class="st2" d="M1282,658.3c.2,17.4,2.1,23.4,13.5,23.4v1.1h-59.2v-1.1c11.4,0,13.5-6.2,13.5-23.6v-48c0-14.6,1.1-33.2-14.6-33.2s-18.4,6.6-23.4,16.9v64.3c0,17.4,2.1,23.6,13.5,23.6v1.1h-59.2v-1.1c11.4,0,13.3-6.2,13.5-23.6v-108.7c-.2-15.7-1.3-23.4-13.5-23.4v-1.1h49.3v1.1c-2.1,1.1-3.6,10.5-3.6,32.2v33.5c6.9-10.5,14.8-16.9,32.4-16.9s37.7,12,37.7,39.5v44.2Z"/>
        <path class="st2" d="M810.3,576.2c-15.7,0-26,9.4-31.3,20.4v-36.9c0-.6,0-1.2,0-1.7-20.9.8-29.2-7.7-32.4-13.7.1,2,.2,4.2.2,6.6v133.4h1.1s28.1-22.3,38-11.4c4.9,5.4,12,13.5,26.4,13.5,31.3,0,47.4-18.2,47.4-55.1s-24-55.1-49.3-55.1ZM806.9,684.3c-11.6,0-21.7-10.9-25.3-23.4-1.3-4.7-2.6-13.9-2.6-29.6v-32.2c4.7-13.5,17.8-21.4,27-21.4,17.8,0,20.8,20.4,20.8,53.6s-5.8,53-19.9,53Z"/>
        <path class="st2" d="M863.9,473.8c6.2-2.1,7.3-10.7,2.6-17.8-1.9-2.9-5.7-6.4-11.4-9.3.5.9.9,1.9,1.1,2.9.3,1.3.4,2.7.2,4.1h0c0,3.8-3.6,7.3-4.1,11.8-.4,6.2,6,10.5,11.6,8.4Z"/>
        <path class="st2" d="M815.9,458.1c0-1,0-1.9.2-2.8,0,0,0,0,0-.1.2-1.2.4-2.2.8-3.3,0-.3.2-.5.3-.8,0-.2.1-.3.2-.5.6-1.3,1.4-2.6,2.3-3.6,0,0,0,0,0,0,2.1-2.5,5-4.6,8.5-6.1-19.2.3-35.7,9.2-36.8,27.9-2.4,41.8,63.5,34.7,62,63.5,0,1.1-.2,2.1-.4,3.1,0,0,0,0,0,.1-.3,1.2-.7,2.4-1.3,3.5-.1.3-.3.6-.5.8-.5.9-1.1,1.7-1.8,2.5-2.9,3.4-7.2,6.3-12.5,8.3,21.9-1.8,37.1-12.2,39.4-29.3,5.8-43.5-60.5-39.5-60.5-63.3Z"/>
        <path class="st2" d="M1155.2,608.1c6.2-2.1,7.3-10.7,2.6-17.8-1.9-2.9-5.7-6.4-11.4-9.3.5.9.9,1.9,1.1,2.9.3,1.3.4,2.7.2,4.1h0c0,3.8-3.6,7.3-4.1,11.8-.4,6.2,6,10.5,11.6,8.4Z"/>
        <path class="st2" d="M1107.1,592.4c0-1,0-1.9.2-2.8,0,0,0,0,0-.1.2-1.2.4-2.2.8-3.3,0-.3.2-.5.3-.8,0-.2.1-.3.2-.5.6-1.3,1.4-2.6,2.3-3.6,0,0,0,0,0,0,2.1-2.5,5-4.6,8.5-6.1-19.2.3-35.7,9.2-36.8,27.9-2.4,41.8,63.5,34.7,62,63.5,0,1.1-.2,2.1-.4,3.1,0,0,0,0,0,.1-.3,1.2-.7,2.4-1.3,3.5-.1.3-.3.6-.5.8-.5.9-1.1,1.7-1.8,2.5-2.9,3.4-7.2,6.3-12.5,8.3,21.9-1.8,37.1-12.2,39.4-29.3,5.8-43.5-60.5-39.5-60.5-63.3Z"/>
        <path class="st2" d="M1131.8,549.7c-9.9,0-10.3-8.4-10.3-23v-50c0-26.1-21.3-34.3-40.3-35.6,2.4,1.9,4.3,4.2,5.3,6.8,3,5.7,2.6,15,2.6,25.8v19.7c-2.1,1.7-5.2,3.2-9.2,4.7-21.4,7.3-51,4.1-52.1,30.7-.9,23.4,26.6,25.3,42.7,20.4,9-2.6,15.2-9.4,19.3-18,3.6,18.2,26,19.9,38.4,19.9s8.4-1.1,10.9-2.6v-1.3c-1.1.9-4.1,2.4-7.3,2.4ZM1074.1,546.9c-13.1,6.7-18.7-3.4-17.2-22.9,1.3-19.5,13.5-21.5,24-25.3,3.4-1.3,6.2-2.6,8.1-3.9v30.9c0,1.5.2,2.8.4,4.1-3.4,7.3-8.1,13.7-15.4,17.2ZM1043.7,479.8c7.5,1.5,12.2-4.9,10.5-10.7-.7-2.6-2.5-4.6-3.9-6.6-2.3-2.7-3.7-5.9-3.7-9.4s.2-2.3.5-3.5c-5.3,4-8.7,8.6-10.2,12.2-3.6,8.8.4,16.7,6.9,18Z"/>
        <path class="st2" d="M959.5,591.9c-1.9,8.1-12.2,9.2-17.2,6.2-8.2-5.4-3.9-15.9-11.6-13.5-7.3,2.1-15.7,13.9-19.1,25.5v49.5c.2,17.4,2.1,23.6,13.5,23.6v1.1h-59.2v-1.1c11.6,0,13.5-6.2,13.5-23.6v-56.8c0-17.6-1.9-23.4-13.5-23.4v-1.1h49.3v1.1c-1.9,1.1-3.2,9.2-3.4,27.7,5.8-18.4,21.7-30,30.5-30.9,12.7-1.1,19.7,6,17.2,15.7Z"/>
        <path class="st2" d="M789.5,548c-9.9,0-10.3-8.4-10.3-22.9v-50c0-25.7-20.5-34-39.2-35.5,1.8,1.8,3.2,3.9,3.9,6.2,3.3,5.7,2.9,15.2,2.9,26.3v19.7c-2.1,1.7-5.2,3.2-9.2,4.7-21.4,7.3-51,4.1-52.1,30.7-.9,23.4,26.6,25.3,42.7,20.4,9-2.6,15.2-9.4,19.3-18,3.6,18.2,26,19.9,38.4,19.9s8.4-1.1,10.9-2.6v-1.3c-1.1.9-4.1,2.3-7.3,2.3ZM731.8,545.2c-13.1,6.6-18.7-3.4-17.2-23,1.3-19.5,13.5-21.5,24-25.3,3.4-1.3,6.2-2.6,8.1-3.9v30.9c0,1.5.2,2.8.4,4.1-3.4,7.3-8.1,13.7-15.4,17.2ZM701.4,478.1c7.5,1.5,12.2-4.9,10.5-10.7-1.1-3.8-4.2-6.3-5.6-9.4-1.7-2.4-2.6-5.1-2.6-8.1s0-.9,0-1.3c-4.7,3.8-7.8,8.1-9.2,11.4-3.6,8.8.4,16.7,6.9,18Z"/>
        <path class="st2" d="M1070.5,659.8v-48.3c0-21.7,1.5-31.1,3.6-32.2v-1.1h-49.5v1.1c11.6,0,13.5,5.8,13.5,23.4v48.3c0,6.9,0,12.7-.4,17.2-4.9,9.9-14.4,16.1-22.9,16.1-15.4,0-14.4-18.7-14.4-33.2v-23.8h-.1v-101.2c0-.5,0-.9,0-1.4v-44.2c0-27.5-15-39.5-37.7-39.5s-25.5,6.4-32.4,16.9v-33.5c0-21.7,1.5-31.1,3.6-32.2v-1.1h-49.3v1.1c12.2,0,13.3,7.7,13.5,23.4v108.7c-.2,17.4-2.1,23.6-13.5,23.6v1.1h59.2v-1.1c-11.4,0-13.5-6.2-13.5-23.6v-64.3c4.9-10.3,14.6-16.9,23.4-16.9,15.7,0,14.6,18.7,14.6,33.2v72.7h0v29.3h0v53.4h0v15c0,27.7,15.2,39.7,38,39.7s25.1-6,31.7-16.1c-.6,8.2-1.7,12.2-3,12.9v1.1h49.3v-1.1c-11.6,0-13.5-6-13.5-23.4Z"/>
        <path class="st2" d="M816.1,455.2c0-1.1.3-2.2.8-3.3-.3,1-.6,2.1-.8,3.3Z"/>
        <path class="st2" d="M852.9,535.6c-.3,1.2-.7,2.3-1.3,3.5.5-1.1,1-2.3,1.3-3.5Z"/>
      </g>
      <path class="st2" d="M1325.8,551.4c0,12.7-10,22.6-22.9,22.6s-23-10-23-22.6,10.2-22.4,23-22.4,22.9,10,22.9,22.4ZM1282.3,551.2c0,11.2,8.8,20.1,20.8,20.1s20.3-8.9,20.3-20-8.6-20.3-20.5-20.3-20.7,9.1-20.7,20.1ZM1299.4,563.1h-5.2v-22.4c2.1-.4,4.9-.7,8.6-.7s6.1.7,7.8,1.6c1.2,1,2.2,2.7,2.2,4.9s-1.9,4.4-4.6,5.2v.3c2.2.8,3.4,2.5,4.1,5.4.7,3.4,1.1,4.8,1.6,5.6h-5.6c-.7-.8-1.1-2.9-1.8-5.4-.4-2.5-1.8-3.5-4.6-3.5h-2.5v9ZM1299.5,550.4h2.5c2.9,0,5.2-.9,5.2-3.3s-1.5-3.4-4.8-3.4-2.3.1-2.9.3v6.4Z"/>
    </g>
  </g>
  <g id="Layer_6">
    <g id="NBNsrX.tif">
      <g>
        <path d="M1197.4,541.1c-5.4-99.6-87.2-185.9-186.2-196.9-175.6-19.5-295.9,164.1-210.8,317.6l-28,106.2,110.3-25.8c148.9,78.7,323.9-32.6,314.8-201.2ZM889.4,697.3l-57.3,13,13.9-54.3c-43.2-66.4-42.3-152.1,11-212.6,101.2-114.8,291.3-48.2,297.3,104.8,5.5,140.7-147.3,223.8-265,149.2Z"/>
        <path d="M1047.1,657.4c-22.5,1.5-60.8-13.7-80.2-25.5-36.2-22-93.3-84.7-89.9-129.6,1.2-16.2,13.9-42.7,31.7-45.2,13.9-1.9,18.5.1,24.4,12,4.7,9.7,12.9,28,15.8,38,4.1,13.9-17.1,25-17.1,33,0,4.8,14.6,24,18.5,28.4,7.5,8.6,18.1,18,27.5,24.3,5.7,3.8,29,17.3,34.6,15.9,6.5-1.6,16.7-19.8,22.1-24.8,5.5-5.1,11.6-1.2,17.7,1.4,5.1,2.1,39.2,18.2,40.1,20.8,4.6,28.1-18.8,49.5-45.2,51.2Z"/>
      </g>
    </g>
  </g>
</svg>